Coordinates
version=1
nRows=8
nColumns=60
inDegrees=yes

Units are S.I. units (second, meters, Newtons, ...)
If the header above contains a line with 'inDegrees', this indicates whether rotational values are in degrees (yes) or radians (no).

endheader
time	pelvis_tilt	pelvis_list	pelvis_rotation	pelvis_tx	pelvis_ty	pelvis_tz	hip_flexion_r	hip_adduction_r	hip_rotation_r	knee_angle_r_beta	knee_angle_r	ankle_angle_r	subtalar_angle_r	mtp_angle_r	hip_flexion_l	hip_adduction_l	hip_rotation_l	knee_angle_l_beta	knee_angle_l	ankle_angle_l	subtalar_angle_l	mtp_angle_l	L5_S1_Flex_Ext	L5_S1_Lat_Bending	L5_S1_axial_rotation	L4_L5_Flex_Ext	L4_L5_Lat_Bending	L4_L5_axial_rotation	L3_L4_Flex_Ext	L3_L4_Lat_Bending	L3_L4_axial_rotation	L2_L3_Flex_Ext	L2_L3_Lat_Bending	L2_L3_axial_rotation	L1_L2_Flex_Ext	L1_L2_Lat_Bending	L1_L2_axial_rotation	L1_T12_Flex_Ext	L1_T12_Lat_Bending	L1_T12_axial_rotation	Abs_r3	Abs_r2	Abs_r1	Abs_t1	Abs_t2	arm_flex_r	arm_add_r	arm_rot_r	elbow_flex_r	pro_sup_r	wrist_flex_r	wrist_dev_r	arm_flex_l	arm_add_l	arm_rot_l	elbow_flex_l	pro_sup_l	wrist_flex_l	wrist_dev_l
      3.62000000	      0.32381105	     11.09744394	     91.15747532	      0.40155580	      0.94315850	      0.28051512	     -0.90583279	     -4.79278526	      0.55734113	      0.29436285	    -16.86574878	      8.87172814	      0.00000000	      0.00000000	     -0.81055288	     -6.07703155	     -1.74539022	      0.27557333	    -15.78918897	      9.90580728	      0.00000000	      0.00000000	     -6.34340059	      0.07654584	     -0.23502614	    -11.78032924	      0.10180596	     -0.24971527	    -10.42157283	      0.18611355	     -0.24971527	     -7.24987254	      0.18611355	     -0.20564787	     -5.89048179	      0.15609227	     -0.19095874	     -3.62461910	      0.11856950	     -0.17626960	    -45.31027609	      0.86590181	     -1.30714486	      0.00000000	      0.00000000	     58.88204010	    -26.61239101	     27.38088263	     71.77610537	     60.22143433	    -28.15377685	     67.08797732	     60.45489587	    -23.04596438	     28.44868823	     66.22441377	     57.76788621	    -24.20381349	     63.50338338
      3.63000000	      0.31460099	     10.88226668	     91.06897193	      0.40137619	      0.94306948	      0.28173539	     -0.54263592	     -4.82414813	      0.68235935	      0.29508375	    -16.90705333	      8.68694976	      0.00000000	      0.00000000	     -0.48524028	     -6.03105843	     -1.77940427	      0.27616281	    -15.82296353	      9.73991726	      0.00000000	      0.00000000	     -6.36461332	      0.07245639	     -0.22917734	    -11.81972339	      0.09636700	     -0.24350093	    -10.45642322	      0.17617046	     -0.24350093	     -7.27411656	      0.17617046	     -0.20053018	     -5.91017993	      0.14775307	     -0.18620659	     -3.63674005	      0.11223495	     -0.17188301	    -45.46179646	      0.81964116	     -1.27461564	      0.00000000	      0.00000000	     60.38778455	    -25.97344349	     27.81101757	     70.01034373	     59.95313030	    -27.65201436	     66.49055969	     62.12019783	    -22.68609975	     29.21732062	     64.28188639	     57.02239822	    -23.57493794	     62.67465696
      3.64000000	      0.29684184	     10.64871027	     91.01085542	      0.40116524	      0.94293232	      0.28296665	     -0.19465174	     -4.86272398	      0.79540954	      0.29467171	    -16.88344534	      8.51748660	      0.00000000	      0.00000000	     -0.14277676	     -5.97352698	     -1.73820834	      0.27636337	    -15.83445454	      9.57512750	      0.00000000	      0.00000000	     -6.38564402	      0.06815156	     -0.22140341	    -11.85877952	      0.09064157	     -0.23524112	    -10.49097457	      0.16570370	     -0.23524112	     -7.29815256	      0.16570370	     -0.19372798	     -5.92970904	      0.13897466	     -0.17989027	     -3.64875700	      0.10556677	     -0.16605255	    -45.61201670	      0.77094407	     -1.23137932	      0.00000000	      0.00000000	     61.92485567	    -25.53259727	     28.51815561	     68.30639477	     59.32884485	    -27.26106120	     65.69393127	     63.97236191	    -22.51687211	     30.67060232	     62.37998845	     55.66153574	    -23.19095617	     61.56319090
      3.65000000	      0.30604216	     10.43803068	     90.98713466	      0.40085389	      0.94290439	      0.28414031	      0.09972649	     -4.87511385	      0.87240746	      0.29385710	    -16.83677157	      8.27750971	      0.00000000	      0.00000000	      0.19697158	     -5.94685847	     -1.73309353	      0.27722800	    -15.88399458	      9.37769551	      0.00000000	      0.00000000	     -6.41317032	      0.07057821	     -0.22510698	    -11.90989860	      0.09386902	     -0.23917617	    -10.53619752	      0.17160386	     -0.23917617	     -7.32961236	      0.17160386	     -0.19696861	     -5.95526996	      0.14392309	     -0.18289942	     -3.66448552	      0.10932565	     -0.16883024	    -45.80863429	      0.79839484	     -1.25197750	      0.00000000	      0.00000000	     63.35210558	    -24.82223486	     28.75783271	     66.53552777	     59.23760150	    -26.64095626	     65.18436851	     65.47598793	    -22.04702051	     31.15427813	     60.51863905	     55.20620469	    -22.51211334	     60.90295202
      3.66000000	      0.32267587	     10.21221706	     90.98641435	      0.40055553	      0.94284870	      0.28523858	      0.36688244	     -4.88287333	      0.90936090	      0.29179327	    -16.71852311	      8.05513629	      0.00000000	      0.00000000	      0.53305030	     -5.93346651	     -1.69807977	      0.27730171	    -15.88821763	      9.20255593	      0.00000000	      0.00000000	     -6.43412786	      0.07411744	     -0.22784026	    -11.94881886	      0.09857620	     -0.24208027	    -10.57062867	      0.18020915	     -0.24208027	     -7.35356474	      0.18020915	     -0.19936022	     -5.97473114	      0.15114029	     -0.18512021	     -3.67646066	      0.11480792	     -0.17088019	    -45.95833192	      0.83843135	     -1.26717915	      0.00000000	      0.00000000	     64.76591466	    -24.15449211	     29.13650366	     64.65090769	     58.96370869	    -25.99545678	     64.41779845	     67.01336514	    -21.62096768	     31.95423802	     58.58934382	     54.48075629	    -21.92302534	     59.98932970
      3.67000000	      0.36098637	      9.99297285	     90.98835956	      0.40031897	      0.94281261	      0.28628370	      0.60677176	     -4.85952070	      0.90215232	      0.28903492	    -16.56048093	      7.85304268	      0.00000000	      0.00000000	      0.83583756	     -5.94816328	     -1.68034589	      0.27657302	    -15.84646675	      9.04540239	      0.00000000	      0.00000000	     -6.45865740	      0.07793133	     -0.23090643	    -11.99437266	      0.10364867	     -0.24533809	    -10.61092824	      0.18948223	     -0.24533809	     -7.38159954	      0.18948223	     -0.20204313	     -5.99750926	      0.15891756	     -0.18761148	     -3.69047684	      0.12071563	     -0.17317983	    -46.13354393	      0.88157477	     -1.28423232	      0.00000000	      0.00000000	     66.14594373	    -23.53893070	     29.58905647	     62.82473032	     58.56056193	    -25.40503642	     63.60028448	     68.59626023	    -21.30075078	     33.01827669	     56.75299226	     53.53852549	    -21.42843990	     59.04574810
      3.68000000	      0.39104533	      9.78335359	     91.00681144	      0.40007732	      0.94281887	      0.28729716	      0.82667397	     -4.84861487	      0.90809514	      0.28637948	    -16.40833564	      7.64589110	      0.00000000	      0.00000000	      1.11906697	     -5.95809521	     -1.66569805	      0.27562876	    -15.79236474	      8.87593721	      0.00000000	      0.00000000	     -6.49057412	      0.08145356	     -0.23268958	    -12.05364520	      0.10833323	     -0.24723268	    -10.66336423	      0.19804618	     -0.24723268	     -7.41807717	      0.19804618	     -0.20360338	     -6.02714713	      0.16610010	     -0.18906028	     -3.70871405	      0.12617156	     -0.17451719	    -46.36152191	      0.92141895	     -1.29414965	      0.00000000	      0.00000000	     67.49859869	    -22.96764370	     29.97966489	     61.09158913	     58.22019141	    -24.78808019	     62.82242576	     70.10137968	    -20.96452876	     34.01141484	     55.05884842	     52.65106736	    -20.99510466	     58.13754525
      3.69000000	      0.40121024	      9.59553000	     91.01959017	      0.39986919	      0.94281361	      0.28832077	      1.03760331	     -4.85553075	      0.96067460	      0.28430475	    -16.28946204	      7.45364936	      0.00000000	      0.00000000	      1.37125005	     -5.94429198	     -1.62181226	      0.27455374	    -15.73077047	      8.68983247	      0.00000000	      0.00000000	     -6.52873350	      0.08315920	     -0.23045425	    -12.12451098	      0.11060174	     -0.24485764	    -10.72605627	      0.20219328	     -0.24485764	     -7.46168952	      0.20219328	     -0.20164747	     -6.06258193	      0.16957824	     -0.18724408	     -3.73051832	      0.12881360	     -0.17284069	    -46.63409051	      0.94071349	     -1.28171742	      0.00000000	      0.00000000	     68.85264973	    -22.48517240	     30.46949638	     59.43705129	     57.76213690	    -24.21019034	     61.98129256	     71.65094023	    -20.71871338	     35.31127058	     53.47580083	     51.46536195	    -20.68718159	     57.11431204
